<?xml version="1.0" encoding="UTF-8" standalone="no"?>
<!DOCTYPE svg PUBLIC "-//W3C//DTD SVG 1.1//EN"
 "http://www.w3.org/Graphics/SVG/1.1/DTD/svg11.dtd">
<!-- Generated by graphviz version 2.38.0 (20140413.2041)
 -->
<!-- Title: G Pages: 1 -->
<svg width="1063pt" height="1046pt"
 viewBox="0.00 0.00 1062.55 1046.00" xmlns="http://www.w3.org/2000/svg" xmlns:xlink="http://www.w3.org/1999/xlink">
<g id="graph0" class="graph" transform="scale(1 1) rotate(0) translate(4 1042)">
<title>G</title>
<polygon fill="white" stroke="none" points="-4,4 -4,-1042 1058.55,-1042 1058.55,4 -4,4"/>
<g id="clust1" class="cluster"><title>cluster_Global</title>
<path fill="none" stroke="gray" d="M244.579,-44C244.579,-44 1034.55,-44 1034.55,-44 1040.55,-44 1046.55,-50 1046.55,-56 1046.55,-56 1046.55,-1018 1046.55,-1018 1046.55,-1024 1040.55,-1030 1034.55,-1030 1034.55,-1030 244.579,-1030 244.579,-1030 238.579,-1030 232.579,-1024 232.579,-1018 232.579,-1018 232.579,-56 232.579,-56 232.579,-50 238.579,-44 244.579,-44"/>
<text text-anchor="middle" x="639.562" y="-1017.2" font-family="Times,serif" font-size="11.00" fill="gray">Global</text>
</g>
<g id="clust2" class="cluster"><title>cluster_\Xtra</title>
<path fill="none" stroke="gray" d="M252.579,-52C252.579,-52 1026.55,-52 1026.55,-52 1032.55,-52 1038.55,-58 1038.55,-64 1038.55,-64 1038.55,-990 1038.55,-990 1038.55,-996 1032.55,-1002 1026.55,-1002 1026.55,-1002 252.579,-1002 252.579,-1002 246.579,-1002 240.579,-996 240.579,-990 240.579,-990 240.579,-64 240.579,-64 240.579,-58 246.579,-52 252.579,-52"/>
<text text-anchor="middle" x="639.562" y="-989.2" font-family="Times,serif" font-size="11.00" fill="gray">Xtra</text>
</g>
<g id="clust3" class="cluster"><title>cluster_\Xtra\Core</title>
<path fill="none" stroke="gray" d="M260.579,-524C260.579,-524 752.106,-524 752.106,-524 758.106,-524 764.106,-530 764.106,-536 764.106,-536 764.106,-962 764.106,-962 764.106,-968 758.106,-974 752.106,-974 752.106,-974 260.579,-974 260.579,-974 254.579,-974 248.579,-968 248.579,-962 248.579,-962 248.579,-536 248.579,-536 248.579,-530 254.579,-524 260.579,-524"/>
<text text-anchor="middle" x="506.343" y="-961.2" font-family="Times,serif" font-size="11.00" fill="gray">Core</text>
</g>
<g id="clust4" class="cluster"><title>cluster_\Xtra\Core\Errors</title>
<path fill="none" stroke="gray" d="M533.106,-820C533.106,-820 744.106,-820 744.106,-820 750.106,-820 756.106,-826 756.106,-832 756.106,-832 756.106,-934 756.106,-934 756.106,-940 750.106,-946 744.106,-946 744.106,-946 533.106,-946 533.106,-946 527.106,-946 521.106,-940 521.106,-934 521.106,-934 521.106,-832 521.106,-832 521.106,-826 527.106,-820 533.106,-820"/>
<text text-anchor="middle" x="638.606" y="-933.2" font-family="Times,serif" font-size="11.00" fill="gray">Errors</text>
</g>
<g id="clust5" class="cluster"><title>cluster_\Xtra\Core\Modular</title>
<path fill="none" stroke="gray" d="M597.106,-686C597.106,-686 680.106,-686 680.106,-686 686.106,-686 692.106,-692 692.106,-698 692.106,-698 692.106,-800 692.106,-800 692.106,-806 686.106,-812 680.106,-812 680.106,-812 597.106,-812 597.106,-812 591.106,-812 585.106,-806 585.106,-800 585.106,-800 585.106,-698 585.106,-698 585.106,-692 591.106,-686 597.106,-686"/>
<text text-anchor="middle" x="638.606" y="-799.2" font-family="Times,serif" font-size="11.00" fill="gray">Modular</text>
</g>
<g id="clust6" class="cluster"><title>cluster_\Xtra\Controllers</title>
<path fill="none" stroke="gray" d="M857.046,-140C857.046,-140 987.046,-140 987.046,-140 993.046,-140 999.046,-146 999.046,-152 999.046,-152 999.046,-308 999.046,-308 999.046,-314 993.046,-320 987.046,-320 987.046,-320 857.046,-320 857.046,-320 851.046,-320 845.046,-314 845.046,-308 845.046,-308 845.046,-152 845.046,-152 845.046,-146 851.046,-140 857.046,-140"/>
<text text-anchor="middle" x="922.046" y="-307.2" font-family="Times,serif" font-size="11.00" fill="gray">Controllers</text>
</g>
<g id="clust7" class="cluster"><title>cluster_\Xtra\Logics</title>
<path fill="none" stroke="gray" d="M565.606,-328C565.606,-328 1018.55,-328 1018.55,-328 1024.55,-328 1030.55,-334 1030.55,-340 1030.55,-340 1030.55,-504 1030.55,-504 1030.55,-510 1024.55,-516 1018.55,-516 1018.55,-516 565.606,-516 565.606,-516 559.606,-516 553.606,-510 553.606,-504 553.606,-504 553.606,-340 553.606,-340 553.606,-334 559.606,-328 565.606,-328"/>
<text text-anchor="middle" x="792.076" y="-503.2" font-family="Times,serif" font-size="11.00" fill="gray">Logics</text>
</g>
<g id="clust8" class="cluster"><title>cluster_\Xtra\Logics\Common</title>
<path fill="none" stroke="gray" d="M580.106,-416C580.106,-416 1004.05,-416 1004.05,-416 1010.05,-416 1016.05,-422 1016.05,-428 1016.05,-428 1016.05,-476 1016.05,-476 1016.05,-482 1010.05,-488 1004.05,-488 1004.05,-488 580.106,-488 580.106,-488 574.106,-488 568.106,-482 568.106,-476 568.106,-476 568.106,-428 568.106,-428 568.106,-422 574.106,-416 580.106,-416"/>
<text text-anchor="middle" x="792.076" y="-475.2" font-family="Times,serif" font-size="11.00" fill="gray">Common</text>
</g>
<g id="clust9" class="cluster"><title>cluster_\Xtra\Logics\Auth</title>
<path fill="none" stroke="gray" d="M573.606,-336C573.606,-336 1010.55,-336 1010.55,-336 1016.55,-336 1022.55,-342 1022.55,-348 1022.55,-348 1022.55,-396 1022.55,-396 1022.55,-402 1016.55,-408 1010.55,-408 1010.55,-408 573.606,-408 573.606,-408 567.606,-408 561.606,-402 561.606,-396 561.606,-396 561.606,-348 561.606,-348 561.606,-342 567.606,-336 573.606,-336"/>
<text text-anchor="middle" x="792.076" y="-395.2" font-family="Times,serif" font-size="11.00" fill="gray">Auth</text>
</g>
<g id="clust10" class="cluster"><title>cluster_\Xtra\Util</title>
<path fill="none" stroke="gray" d="M874.046,-60C874.046,-60 970.046,-60 970.046,-60 976.046,-60 982.046,-66 982.046,-72 982.046,-72 982.046,-120 982.046,-120 982.046,-126 976.046,-132 970.046,-132 970.046,-132 874.046,-132 874.046,-132 868.046,-132 862.046,-126 862.046,-120 862.046,-120 862.046,-72 862.046,-72 862.046,-66 868.046,-60 874.046,-60"/>
<text text-anchor="middle" x="922.046" y="-119.2" font-family="Times,serif" font-size="11.00" fill="gray">Util</text>
</g>
<!-- \\Xtra\\Core\\Errors\\FeatureNotImplementedException -->
<g id="node1" class="node"><title>\\Xtra\\Core\\Errors\\FeatureNotImplementedException</title>
<polygon fill="none" stroke="black" points="748.106,-918 529.106,-918 529.106,-882 748.106,-882 748.106,-918"/>
<text text-anchor="middle" x="638.606" y="-897.2" font-family="Courier,monospace" font-size="11.00">FeatureNotImplementedException</text>
</g>
<!-- \\Xtra\\Core\\XtraException -->
<g id="node5" class="node"><title>\\Xtra\\Core\\XtraException</title>
<polygon fill="none" stroke="black" points="360.579,-891 256.579,-891 256.579,-855 360.579,-855 360.579,-891"/>
<text text-anchor="middle" x="308.579" y="-870.2" font-family="Courier,monospace" font-size="11.00">XtraException</text>
</g>
<!-- \\Xtra\\Core\\Errors\\FeatureNotImplementedException&#45;&gt;\\Xtra\\Core\\XtraException -->
<g id="edge1" class="edge"><title>\\Xtra\\Core\\Errors\\FeatureNotImplementedException&#45;&gt;\\Xtra\\Core\\XtraException</title>
<path fill="none" stroke="black" d="M528.833,-891.047C476.236,-886.718 415.057,-881.682 370.709,-878.032"/>
<polygon fill="none" stroke="black" points="370.918,-874.537 360.664,-877.205 370.344,-881.513 370.918,-874.537"/>
</g>
<!-- \\Xtra\\Core\\Errors\\AuthenticationException -->
<g id="node2" class="node"><title>\\Xtra\\Core\\Errors\\AuthenticationException</title>
<polygon fill="none" stroke="black" points="724.606,-864 552.606,-864 552.606,-828 724.606,-828 724.606,-864"/>
<text text-anchor="middle" x="638.606" y="-843.2" font-family="Courier,monospace" font-size="11.00">AuthenticationException</text>
</g>
<!-- \\Xtra\\Core\\Errors\\AuthenticationException&#45;&gt;\\Xtra\\Core\\XtraException -->
<g id="edge8" class="edge"><title>\\Xtra\\Core\\Errors\\AuthenticationException&#45;&gt;\\Xtra\\Core\\XtraException</title>
<path fill="none" stroke="black" d="M552.277,-853.023C495.447,-857.701 422.099,-863.738 370.979,-867.946"/>
<polygon fill="none" stroke="black" points="370.422,-864.48 360.743,-868.789 370.997,-871.456 370.422,-864.48"/>
</g>
<!-- \\Xtra\\Core\\Modular\\MenuContext -->
<g id="node3" class="node"><title>\\Xtra\\Core\\Modular\\MenuContext</title>
<polygon fill="none" stroke="black" points="684.106,-784 593.106,-784 593.106,-748 684.106,-748 684.106,-784"/>
<text text-anchor="middle" x="638.606" y="-763.2" font-family="Courier,monospace" font-size="11.00">MenuContext</text>
</g>
<!-- \\Xtra\\Core\\Modular\\Menu -->
<g id="node4" class="node"><title>\\Xtra\\Core\\Modular\\Menu</title>
<polygon fill="none" stroke="black" points="665.606,-730 611.606,-730 611.606,-694 665.606,-694 665.606,-730"/>
<text text-anchor="middle" x="638.606" y="-709.2" font-family="Courier,monospace" font-size="11.00">Menu</text>
</g>
<!-- \\Exception -->
<g id="node18" class="node"><title>\\Exception</title>
<ellipse fill="none" stroke="black" cx="48.7457" cy="-873" rx="48.9926" ry="18"/>
<text text-anchor="middle" x="48.7457" y="-869.3" font-family="Times,serif" font-size="14.00" fill="gray">\Exception</text>
</g>
<!-- \\Xtra\\Core\\XtraException&#45;&gt;\\Exception -->
<g id="edge3" class="edge"><title>\\Xtra\\Core\\XtraException&#45;&gt;\\Exception</title>
<path fill="none" stroke="black" d="M256.331,-873C213.55,-873 152.575,-873 107.959,-873"/>
<polygon fill="none" stroke="black" points="107.847,-869.5 97.8465,-873 107.846,-876.5 107.847,-869.5"/>
</g>
<!-- \\Xtra\\Core\\XtraFrameworkProvider -->
<g id="node6" class="node"><title>\\Xtra\\Core\\XtraFrameworkProvider</title>
<polygon fill="none" stroke="black" points="717.606,-676 559.606,-676 559.606,-640 717.606,-640 717.606,-676"/>
<text text-anchor="middle" x="638.606" y="-655.2" font-family="Courier,monospace" font-size="11.00">XtraFrameworkProvider</text>
</g>
<!-- \\Illuminate\\Support\\ServiceProvider -->
<g id="node19" class="node"><title>\\Illuminate\\Support\\ServiceProvider</title>
<ellipse fill="none" stroke="black" cx="308.579" cy="-18" rx="139.175" ry="18"/>
<text text-anchor="middle" x="308.579" y="-14.3" font-family="Times,serif" font-size="14.00" fill="gray">\Illuminate\Support\ServiceProvider</text>
</g>
<!-- \\Xtra\\Core\\XtraFrameworkProvider&#45;&gt;\\Illuminate\\Support\\ServiceProvider -->
<g id="edge7" class="edge"><title>\\Xtra\\Core\\XtraFrameworkProvider&#45;&gt;\\Illuminate\\Support\\ServiceProvider</title>
<path fill="none" stroke="black" d="M559.523,-651.798C544.957,-647.588 530.83,-641.047 519.667,-631 427.716,-548.241 338.701,-155.263 315.441,-46.1554"/>
<polygon fill="none" stroke="black" points="318.833,-45.2803 313.338,-36.2219 311.985,-46.73 318.833,-45.2803"/>
</g>
<!-- \\Xtra\\Core\\XtraFrameworkModuleProvider -->
<g id="node7" class="node"><title>\\Xtra\\Core\\XtraFrameworkModuleProvider</title>
<polygon fill="none" stroke="black" points="738.106,-622 539.106,-622 539.106,-586 738.106,-586 738.106,-622"/>
<text text-anchor="start" x="604.606" y="-607.2" font-family="Courier,monospace" font-size="11.00">«abstract»</text>
<text text-anchor="start" x="547.106" y="-595.2" font-family="Courier,monospace" font-size="11.00">XtraFrameworkModuleProvider</text>
</g>
<!-- \\Xtra\\Core\\XtraFrameworkModuleProvider&#45;&gt;\\Illuminate\\Support\\ServiceProvider -->
<g id="edge9" class="edge"><title>\\Xtra\\Core\\XtraFrameworkModuleProvider&#45;&gt;\\Illuminate\\Support\\ServiceProvider</title>
<path fill="none" stroke="black" d="M538.909,-589.617C531.964,-586.2 525.44,-582.045 519.667,-577 352.561,-430.975 318.024,-138.339 311.193,-46.3502"/>
<polygon fill="none" stroke="black" points="314.669,-45.8858 310.49,-36.1501 307.686,-46.3671 314.669,-45.8858"/>
</g>
<!-- \\Xtra\\Core\\FeatureImplementCheck -->
<g id="node8" class="node"><title>\\Xtra\\Core\\FeatureImplementCheck</title>
<polygon fill="none" stroke="black" points="717.606,-568 559.606,-568 559.606,-532 717.606,-532 717.606,-568"/>
<text text-anchor="middle" x="638.606" y="-547.2" font-family="Courier,monospace" font-size="11.00">FeatureImplementCheck</text>
</g>
<!-- \\Xtra\\Controllers\\LoginController -->
<g id="node9" class="node"><title>\\Xtra\\Controllers\\LoginController</title>
<polygon fill="none" stroke="black" points="981.046,-292 863.046,-292 863.046,-256 981.046,-256 981.046,-292"/>
<text text-anchor="middle" x="922.046" y="-271.2" font-family="Courier,monospace" font-size="11.00">LoginController</text>
</g>
<!-- \\Illuminate\\Routing\\Controller -->
<g id="node17" class="node"><title>\\Illuminate\\Routing\\Controller</title>
<ellipse fill="none" stroke="black" cx="638.606" cy="-18" rx="118.879" ry="18"/>
<text text-anchor="middle" x="638.606" y="-14.3" font-family="Times,serif" font-size="14.00" fill="gray">\Illuminate\Routing\Controller</text>
</g>
<!-- \\Xtra\\Controllers\\LoginController&#45;&gt;\\Illuminate\\Routing\\Controller -->
<g id="edge2" class="edge"><title>\\Xtra\\Controllers\\LoginController&#45;&gt;\\Illuminate\\Routing\\Controller</title>
<path fill="none" stroke="black" d="M862.62,-262.375C851.097,-258.568 839.503,-253.562 829.546,-247 747.463,-192.91 682.451,-92.684 654.492,-44.8106"/>
<polygon fill="none" stroke="black" points="657.422,-42.8845 649.4,-35.9631 651.355,-46.3761 657.422,-42.8845"/>
</g>
<!-- \\Xtra\\Controllers\\HomeController -->
<g id="node10" class="node"><title>\\Xtra\\Controllers\\HomeController</title>
<polygon fill="none" stroke="black" points="977.546,-238 866.546,-238 866.546,-202 977.546,-202 977.546,-238"/>
<text text-anchor="middle" x="922.046" y="-217.2" font-family="Courier,monospace" font-size="11.00">HomeController</text>
</g>
<!-- \\Xtra\\Controllers\\HomeController&#45;&gt;\\Illuminate\\Routing\\Controller -->
<g id="edge4" class="edge"><title>\\Xtra\\Controllers\\HomeController&#45;&gt;\\Illuminate\\Routing\\Controller</title>
<path fill="none" stroke="black" d="M866.153,-208.232C853.669,-204.366 840.784,-199.371 829.546,-193 759.012,-153.016 693.356,-82.2055 660.877,-44.0657"/>
<polygon fill="none" stroke="black" points="663.206,-41.3978 654.089,-36.0002 657.85,-45.905 663.206,-41.3978"/>
</g>
<!-- \\Xtra\\Controllers\\RegisterController -->
<g id="node11" class="node"><title>\\Xtra\\Controllers\\RegisterController</title>
<polygon fill="none" stroke="black" points="991.046,-184 853.046,-184 853.046,-148 991.046,-148 991.046,-184"/>
<text text-anchor="middle" x="922.046" y="-163.2" font-family="Courier,monospace" font-size="11.00">RegisterController</text>
</g>
<!-- \\Xtra\\Controllers\\RegisterController&#45;&gt;\\Illuminate\\Routing\\Controller -->
<g id="edge10" class="edge"><title>\\Xtra\\Controllers\\RegisterController&#45;&gt;\\Illuminate\\Routing\\Controller</title>
<path fill="none" stroke="black" d="M859.23,-147.974C849.15,-144.399 838.939,-140.381 829.546,-136 771.242,-108.81 708.831,-67.3764 672.061,-41.5327"/>
<polygon fill="none" stroke="black" points="673.912,-38.5545 663.727,-35.6331 669.867,-44.2678 673.912,-38.5545"/>
</g>
<!-- \\Xtra\\Logics\\Common\\DefaultXtraRegistration -->
<g id="node12" class="node"><title>\\Xtra\\Logics\\Common\\DefaultXtraRegistration</title>
<polygon fill="none" stroke="black" points="1008.05,-460 836.046,-460 836.046,-424 1008.05,-424 1008.05,-460"/>
<text text-anchor="middle" x="922.046" y="-439.2" font-family="Courier,monospace" font-size="11.00">DefaultXtraRegistration</text>
</g>
<!-- \\Xtra\\Logics\\Common\\XtraRegistration -->
<g id="node13" class="node"><title>\\Xtra\\Logics\\Common\\XtraRegistration</title>
<polygon fill="none" stroke="black" points="701.106,-460 576.106,-460 576.106,-424 701.106,-424 701.106,-460"/>
<text text-anchor="middle" x="638.606" y="-439.2" font-family="Courier,monospace" font-size="11.00">XtraRegistration</text>
</g>
<!-- \\Xtra\\Logics\\Common\\DefaultXtraRegistration&#45;&gt;\\Xtra\\Logics\\Common\\XtraRegistration -->
<g id="edge11" class="edge"><title>\\Xtra\\Logics\\Common\\DefaultXtraRegistration&#45;&gt;\\Xtra\\Logics\\Common\\XtraRegistration</title>
<path fill="none" stroke="black" stroke-dasharray="1,5" d="M835.841,-442C796.208,-442 749.578,-442 711.72,-442"/>
<polygon fill="none" stroke="black" points="711.288,-438.5 701.288,-442 711.288,-445.5 711.288,-438.5"/>
</g>
<!-- \\Xtra\\Logics\\Auth\\DefaultXtraAuthentication -->
<g id="node14" class="node"><title>\\Xtra\\Logics\\Auth\\DefaultXtraAuthentication</title>
<polygon fill="none" stroke="black" points="1014.55,-380 829.546,-380 829.546,-344 1014.55,-344 1014.55,-380"/>
<text text-anchor="middle" x="922.046" y="-359.2" font-family="Courier,monospace" font-size="11.00">DefaultXtraAuthentication</text>
</g>
<!-- \\Xtra\\Logics\\Auth\\DefaultXtraAuthentication&#45;&gt;\\Xtra\\Core\\FeatureImplementCheck -->
<g id="edge6" class="edge"><title>\\Xtra\\Logics\\Auth\\DefaultXtraAuthentication&#45;&gt;\\Xtra\\Core\\FeatureImplementCheck</title>
<path fill="none" stroke="black" stroke-dasharray="1,5" d="M880.204,-380.062C863.572,-388.465 844.73,-399.4 829.546,-412 794.195,-441.333 800.379,-463.815 764.106,-492 745.244,-506.656 722.08,-518.723 700.869,-527.984"/>
<polygon fill="none" stroke="black" points="699.443,-524.786 691.601,-531.909 702.174,-531.232 699.443,-524.786"/>
</g>
<!-- \\Xtra\\Logics\\Auth\\XtraAuthentication -->
<g id="node15" class="node"><title>\\Xtra\\Logics\\Auth\\XtraAuthentication</title>
<polygon fill="none" stroke="black" points="707.606,-380 569.606,-380 569.606,-344 707.606,-344 707.606,-380"/>
<text text-anchor="middle" x="638.606" y="-359.2" font-family="Courier,monospace" font-size="11.00">XtraAuthentication</text>
</g>
<!-- \\Xtra\\Logics\\Auth\\DefaultXtraAuthentication&#45;&gt;\\Xtra\\Logics\\Auth\\XtraAuthentication -->
<g id="edge5" class="edge"><title>\\Xtra\\Logics\\Auth\\DefaultXtraAuthentication&#45;&gt;\\Xtra\\Logics\\Auth\\XtraAuthentication</title>
<path fill="none" stroke="black" stroke-dasharray="1,5" d="M829.281,-362C793.366,-362 752.59,-362 718.073,-362"/>
<polygon fill="none" stroke="black" points="718.045,-358.5 708.045,-362 718.045,-365.5 718.045,-358.5"/>
</g>
<!-- \\Xtra\\Util\\ValidatorUtil -->
<g id="node16" class="node"><title>\\Xtra\\Util\\ValidatorUtil</title>
<polygon fill="none" stroke="black" points="974.046,-104 870.046,-104 870.046,-68 974.046,-68 974.046,-104"/>
<text text-anchor="middle" x="922.046" y="-83.2" font-family="Courier,monospace" font-size="11.00">ValidatorUtil</text>
</g>
</g>
</svg>
